<?xml version="1.0" encoding="iso-8859-1"?>
<!-- Generator: Adobe Illustrator 19.0.0, SVG Export Plug-In . SVG Version: 6.00 Build 0)  -->
<svg version="1.1" id="Layer_1" xmlns="http://www.w3.org/2000/svg" xmlns:xlink="http://www.w3.org/1999/xlink" x="0px" y="0px"
	 viewBox="0 0 512.034 512.034" style="enable-background:new 0 0 512.034 512.034;" xml:space="preserve">
<g>
	<g>
		<g>
			<path d="M298.701,384.006c-11.776,0-21.333,9.557-21.333,21.333s9.557,21.333,21.333,21.333s21.333-9.557,21.333-21.333
				S310.477,384.006,298.701,384.006z"/>
			<path d="M511.055,137.205c-2.688-24.085-11.413-46.379-24.085-65.941l-13.461,11.648c-14.293,17.024-23.104,37.397-25.472,58.987
				c-3.52,31.573,5.888,62.101,26.453,86.016l11.627,12.309C505.999,210.123,515.108,173.707,511.055,137.205z"/>
			<path d="M0.034,110.351v97.109c0,34.069,27.733,61.781,61.781,61.781h2.944V48.57h-2.944
				C27.767,48.57,0.034,76.282,0.034,110.351z"/>
			<path d="M405.613,137.207c3.392-30.656,16.043-59.456,36.544-83.285c0.683-0.789,1.429-1.515,2.219-2.197l14.656-12.715
				c-22.976-20.245-51.605-34.219-83.307-37.931h-0.021c-22.421-2.603-44.565-0.491-65.707,6.251
				c-72.917,23.317-139.52,36.437-202.56,40.064v221.973c44.907,0.235,91.733,6.08,141.483,17.237l-41.024,108.992
				c-16.747,44.395,5.76,94.144,50.176,110.869c9.877,3.712,20.16,5.568,30.379,5.568c12.075,0,24.149-2.581,35.477-7.723
				c20.949-9.472,36.949-26.539,45.013-48.064l62.443-165.803c9.344-5.141,18.24-11.115,26.411-18.112l-14.976-15.851
				C413.762,222.754,400.791,180.663,405.613,137.207z M329.026,441.229c-4.075,10.837-12.139,19.435-22.699,24.235
				c-10.56,4.779-22.357,5.141-33.216,1.067c-10.859-4.075-19.456-12.139-24.213-22.699c-4.8-10.56-5.184-22.357-1.088-33.216
				l42.688-113.408c7.36,2.027,14.485,3.669,21.995,5.931c6.443,1.941,13.056,3.307,19.733,4.395
				c2.048,0.341,4.117,0.555,6.187,0.811c4.971,0.597,9.941,0.96,14.955,1.088c1.28,0.021,2.539,0.277,3.819,0.277
				c1.003,0,1.984-0.128,2.987-0.149c1.941-0.021,3.861-0.149,5.803-0.256c3.157-0.192,6.293-0.448,9.408-0.832
				c1.237-0.128,2.517-0.149,3.755-0.32L329.026,441.229z"/>
		</g>
	</g>
</g>
<g>
</g>
<g>
</g>
<g>
</g>
<g>
</g>
<g>
</g>
<g>
</g>
<g>
</g>
<g>
</g>
<g>
</g>
<g>
</g>
<g>
</g>
<g>
</g>
<g>
</g>
<g>
</g>
<g>
</g>
</svg>
